<?xml version="1.0" encoding="UTF-8"?>
<svg id="Layer_2" data-name="Layer 2" xmlns="http://www.w3.org/2000/svg" viewBox="0 0 495.41 495.41">
  <defs>
    <style>
      .cls-1 {
        fill: #fff;
      }

      .cls-2 {
        fill: #3bb77e;
      }

      .cls-3 {
        fill: none;
      }

      .cls-4 {
        fill: #bce3c9;
      }
    </style>
  </defs>
  <g id="Colour">
    <g>
      <path class="cls-3" d="m32.44,281.08c0-10.89,8.39-19.84,19.05-20.77v-29.63c0-11.52,9.37-20.9,20.9-20.9h269.28l4.76-12.82c2.4-10.03,11.23-17.85,20.21-17.85h77.79c9.35,0,16.96,7.61,16.96,16.96v176.99c21.62-36.77,34.04-79.61,34.04-125.36C495.41,110.9,384.51,0,247.7,0S0,110.9,0,247.7c0,44.61,11.8,86.46,32.44,122.61v-89.24Z"/>
      <path class="cls-4" d="m444.42,187.12h-77.79c-5.2,0-11.03,5.56-12.47,11.89-.04.17-.09.34-.15.5l-5.81,15.67c-.58,1.57-2.08,2.61-3.75,2.61H72.38c-7.11,0-12.9,5.79-12.9,12.9v29.54h7.09v-12.52c0-2.21,1.79-4,4-4h14.74v-12.96c0-2.21,1.79-4,4-4h343.45c2.21,0,4,1.79,4,4v29.48h3.75c4.85,0,9.31,1.68,12.86,4.47v-68.62c0-4.94-4.02-8.96-8.96-8.96Z"/>
      <path class="cls-1" d="m93.31,234.75v8.96h320.72c2.21,0,4,1.79,4,4v12.52h10.74v-25.48H93.31Z"/>
      <rect class="cls-1" x="74.58" y="251.71" width="335.45" height="8.52"/>
      <path class="cls-4" d="m440.52,268.22H53.3c-7.09,0-12.86,5.77-12.86,12.86v102.28c44.25,67.47,120.55,112.05,207.27,112.05s161.19-43.5,205.67-109.62v-104.71c0-7.09-5.77-12.86-12.86-12.86Zm-50.26,84.91h-134.03v-46.03h134.03v46.03Z"/>
      <path class="cls-1" d="m256.23,353.14h134.03v-46.03h-134.03v46.03Zm18.42-32.5h97.13c1.38,0,2.5,1.12,2.5,2.5s-1.12,2.5-2.5,2.5h-97.13c-1.38,0-2.5-1.12-2.5-2.5s1.12-2.5,2.5-2.5Zm0,15.88h97.13c1.38,0,2.5,1.12,2.5,2.5s-1.12,2.5-2.5,2.5h-97.13c-1.38,0-2.5-1.12-2.5-2.5s1.12-2.5,2.5-2.5Z"/>
      <path class="cls-2" d="m274.65,325.63h97.13c1.38,0,2.5-1.12,2.5-2.5s-1.12-2.5-2.5-2.5h-97.13c-1.38,0-2.5,1.12-2.5,2.5s1.12,2.5,2.5,2.5Z"/>
      <path class="cls-2" d="m274.65,341.51h97.13c1.38,0,2.5-1.12,2.5-2.5s-1.12-2.5-2.5-2.5h-97.13c-1.38,0-2.5,1.12-2.5,2.5s1.12,2.5,2.5,2.5Z"/>
    </g>
  </g>
</svg>