<?xml version="1.0" encoding="UTF-8"?>
<svg id="Layer_2" data-name="Layer 2" xmlns="http://www.w3.org/2000/svg" viewBox="0 0 59.38 58.37">
  <defs>
    <style>
      .cls-1 {
        fill: #fff;
      }

      .cls-2 {
        fill: #3bb77e;
      }

      .cls-3 {
        fill: #bce3c9;
      }
    </style>
  </defs>
  <g id="_1" data-name="1">
    <g id="_998_A_A_Education_School" data-name="998, A, A+, Education, School">
      <g>
        <polygon class="cls-3" points="40.36 10.32 40.36 1.42 8.8 1.42 8.8 57.05 49.26 57.05 49.26 10.32 40.36 10.32"/>
        <path class="cls-1" d="m3.14,41.88c1.06,0,1.92.86,1.92,1.92s-.86,1.92-1.92,1.92-1.92-.86-1.92-1.92.86-1.92,1.92-1.92Z"/>
        <path class="cls-1" d="m55.54,19.12c1.4,0,2.53,1.13,2.53,2.53s-1.13,2.53-2.53,2.53-2.53-1.13-2.53-2.53,1.13-2.53,2.53-2.53Z"/>
        <path class="cls-1" d="m29.03,17.9c6.98,0,12.64,5.66,12.64,12.65s-5.66,12.64-12.64,12.64-12.65-5.66-12.65-12.64,5.66-12.65,12.65-12.65Z"/>
        <path class="cls-1" d="m40.36,1.42c3.44,3.44,5.36,5.36,8.9,8.9h-8.9V1.42Z"/>
        <path class="cls-2" d="m53.01,36.82c.73,0,1.31.59,1.31,1.31s-.59,1.31-1.31,1.31-1.32-.59-1.32-1.31.59-1.31,1.32-1.31Z"/>
        <path class="cls-2" d="m51.79,3.94c.73,0,1.31.59,1.31,1.32s-.59,1.31-1.31,1.31-1.32-.59-1.32-1.31.59-1.32,1.32-1.32Z"/>
        <path class="cls-2" d="m18.92,46.94c.73,0,1.32.59,1.32,1.31s-.59,1.32-1.32,1.32-1.32-.59-1.32-1.32.59-1.31,1.32-1.31Z"/>
        <path class="cls-2" d="m3.74,31.76c.73,0,1.32.59,1.32,1.32s-.59,1.32-1.32,1.32-1.31-.59-1.31-1.32.59-1.32,1.31-1.32Z"/>
        <path class="cls-2" d="m2.43,12.75c.73,0,1.31.59,1.31,1.32s-.59,1.31-1.31,1.31-1.32-.59-1.32-1.31.59-1.32,1.32-1.32Z"/>
        <path class="cls-2" d="m29.03,44.41c-7.69,0-13.96-6.27-13.96-13.96s6.27-13.96,13.96-13.96,13.96,6.27,13.96,13.96-6.27,13.96-13.96,13.96Zm0-25.29c-6.27,0-11.43,5.06-11.43,11.43s5.06,11.43,11.43,11.43,11.43-5.06,11.43-11.43-5.16-11.43-11.43-11.43Z"/>
        <path class="cls-2" d="m49.26,11.53h-8.9c-.71,0-1.31-.61-1.31-1.31V1.31c0-.71.61-1.31,1.31-1.31s1.31.61,1.31,1.31v7.69h7.59c.71,0,1.32.61,1.32,1.31-.1.61-.61,1.21-1.32,1.21Z"/>
        <path class="cls-2" d="m49.26,58.37H8.8c-.71,0-1.31-.61-1.31-1.32V1.42c0-.71.61-1.31,1.31-1.31h31.66c.3,0,.61.1.91.4l8.9,8.9c.2.2.4.61.4.91v46.84c-.2.61-.71,1.21-1.42,1.21Zm-39.25-2.53h37.93V10.82l-8.09-8.09H10.01v53.11Z"/>
        <path class="cls-2" d="m42.89,49.47h-20.23c-.71,0-1.32-.61-1.32-1.31s.61-1.31,1.32-1.31h20.23c.71,0,1.32.61,1.32,1.31s-.61,1.31-1.32,1.31Z"/>
        <path class="cls-2" d="m39.15,53.31h-5.06c-.71,0-1.31-.61-1.31-1.31s.61-1.31,1.31-1.31h5.06c.71,0,1.31.61,1.31,1.31-.1.71-.61,1.31-1.31,1.31Z"/>
        <path class="cls-2" d="m30.25,36.82c-.51,0-1.01-.3-1.21-.81l-2.63-6.98-2.63,6.98c-.2.61-1.01,1.01-1.62.71-.61-.2-1.01-1.01-.71-1.62l3.84-10.12c.2-.51.61-.81,1.21-.81.51,0,1.01.3,1.21.81l3.84,10.12c.2.61-.1,1.42-.71,1.62-.3.1-.4.1-.61.1Z"/>
        <path class="cls-2" d="m29.34,34.29h-5.66c-.71,0-1.32-.61-1.32-1.31s.61-1.32,1.32-1.32h5.66c.71,0,1.31.61,1.31,1.32s-.61,1.31-1.31,1.31Z"/>
        <path class="cls-2" d="m34.09,29.23c-.71,0-1.31-.61-1.31-1.32v-3.74c0-.71.61-1.31,1.31-1.31s1.32.61,1.32,1.31v3.84c-.1.61-.61,1.21-1.32,1.21Z"/>
        <path class="cls-2" d="m36.01,27.31h-3.84c-.71,0-1.31-.61-1.31-1.31s.61-1.31,1.31-1.31h3.84c.71,0,1.31.61,1.31,1.31-.1.81-.71,1.31-1.31,1.31Z"/>
        <path class="cls-2" d="m21.45,7.79h-7.59c-.71,0-1.32-.61-1.32-1.31s.61-1.32,1.32-1.32h7.59c.71,0,1.31.61,1.31,1.32-.1.71-.61,1.31-1.31,1.31Z"/>
        <path class="cls-2" d="m21.45,11.53h-7.59c-.71,0-1.32-.61-1.32-1.31s.61-1.31,1.32-1.31h7.59c.71,0,1.31.61,1.31,1.31-.1.71-.61,1.31-1.31,1.31Z"/>
        <path class="cls-2" d="m21.45,15.38h-7.59c-.71,0-1.32-.61-1.32-1.31s.61-1.32,1.32-1.32h7.59c.71,0,1.31.61,1.31,1.32-.1.71-.61,1.31-1.31,1.31Z"/>
        <path class="cls-2" d="m3.14,46.94c-1.72,0-3.14-1.42-3.14-3.14s1.42-3.14,3.14-3.14,3.14,1.42,3.14,3.14-1.42,3.14-3.14,3.14Zm0-3.74c-.3,0-.61.3-.61.61s.3.61.61.61.61-.3.61-.61c0-.4-.3-.61-.61-.61Z"/>
        <path class="cls-2" d="m55.54,25.49c-2.12,0-3.84-1.72-3.84-3.84s1.72-3.84,3.84-3.84,3.84,1.72,3.84,3.84-1.72,3.84-3.84,3.84Zm0-5.06c-.71,0-1.32.61-1.32,1.32s.61,1.31,1.32,1.31,1.31-.61,1.31-1.31-.61-1.32-1.31-1.32Z"/>
      </g>
    </g>
  </g>
</svg>