<?xml version="1.0" encoding="UTF-8"?>
<svg id="Layer_2" data-name="Layer 2" xmlns="http://www.w3.org/2000/svg" xmlns:xlink="http://www.w3.org/1999/xlink" viewBox="0 0 171.43 170.98">
  <defs>
    <style>
      .cls-1, .cls-2 {
        stroke: #f1f2f2;
      }

      .cls-1, .cls-2, .cls-3, .cls-4, .cls-5, .cls-6, .cls-7 {
        stroke-linejoin: round;
        stroke-width: 3.52px;
      }

      .cls-1, .cls-2, .cls-8 {
        fill: none;
      }

      .cls-2 {
        opacity: .6;
      }

      .cls-9 {
        opacity: .7;
      }

      .cls-9, .cls-4 {
        fill: #f1f2f2;
      }

      .cls-10 {
        fill: #ffd642;
      }

      .cls-3 {
        fill: #e6e7e8;
      }

      .cls-3, .cls-4, .cls-5, .cls-6, .cls-7 {
        stroke: #414042;
      }

      .cls-11 {
        fill: #fcc542;
      }

      .cls-5 {
        fill: #30c1d8;
      }

      .cls-12 {
        clip-path: url(#clippath);
      }

      .cls-6 {
        fill: #afb6bb;
      }

      .cls-7 {
        fill: #d1d3d4;
      }
    </style>
    <clipPath id="clippath">
      <circle class="cls-8" cx="85.49" cy="85.49" r="85.49" transform="translate(-35.41 85.49) rotate(-45)"/>
    </clipPath>
  </defs>
  <g id="Icons">
    <g>
      <circle class="cls-10" cx="85.94" cy="85.49" r="85.49" transform="translate(-35.28 85.81) rotate(-45)"/>
      <g class="cls-12">
        <polygon class="cls-11" points="174.53 135.13 115.03 135.13 115.03 118.08 88.76 118.08 88.76 135.13 17.93 135.13 17.93 150.18 88.76 150.18 88.76 192.46 115.03 192.46 115.03 150.18 174.53 150.18 174.53 135.13"/>
        <rect class="cls-3" x="62.21" y="144.26" width="46.56" height="34.89"/>
        <rect class="cls-9" x="63.86" y="145.9" width="12.99" height="31.42"/>
        <g>
          <line class="cls-2" x1="19.29" y1="16.56" x2="65.25" y2="16.56"/>
          <line class="cls-2" x1="88.93" y1="20.59" x2="95.7" y2="20.59"/>
          <line class="cls-2" x1="19.29" y1="45.3" x2="33.54" y2="45.3"/>
          <line class="cls-2" x1="119.3" y1="154.88" x2="158.93" y2="154.88"/>
          <line class="cls-2" x1="24.31" y1="83.86" x2="53.27" y2="83.86"/>
          <line class="cls-2" x1="114.9" y1="93.26" x2="157.73" y2="93.26"/>
          <line class="cls-2" x1="139.12" y1="10.65" x2="117.05" y2="10.65"/>
          <line class="cls-2" x1="49.83" y1="156.84" x2="27.76" y2="156.84"/>
        </g>
      </g>
      <g>
        <g>
          <g>
            <rect class="cls-4" x="9.47" y="30.6" width="76.01" height="95.41"/>
            <rect class="cls-4" x="85.49" y="30.6" width="76.37" height="95.41"/>
            <rect class="cls-5" x="9.47" y="126.01" width="76.01" height="18.26"/>
            <rect class="cls-5" x="85.49" y="126.01" width="76.37" height="18.26"/>
          </g>
          <polygon class="cls-6" points="132.59 30.6 132.59 59.39 132.59 67.28 140.37 63.47 148.15 67.28 148.15 59.39 148.15 59.39 148.15 30.6 132.59 30.6"/>
          <line class="cls-5" x1="20.97" y1="40.41" x2="37.94" y2="40.41"/>
          <line class="cls-5" x1="20.97" y1="49.69" x2="65.25" y2="49.69"/>
          <line class="cls-5" x1="28.12" y1="67.98" x2="73.47" y2="67.98"/>
          <line class="cls-5" x1="49.18" y1="86.99" x2="73.47" y2="86.99"/>
          <line class="cls-5" x1="49.18" y1="77.53" x2="73.47" y2="77.53"/>
          <line class="cls-5" x1="49.18" y1="96.89" x2="73.47" y2="96.89"/>
          <line class="cls-5" x1="49.18" y1="106.17" x2="73.47" y2="106.17"/>
          <line class="cls-5" x1="18.91" y1="116.02" x2="73.47" y2="116.02"/>
          <line class="cls-5" x1="104.05" y1="67.9" x2="116.95" y2="67.9"/>
          <line class="cls-5" x1="96.89" y1="86.9" x2="149.39" y2="86.9"/>
          <line class="cls-5" x1="96.89" y1="77.44" x2="149.39" y2="77.44"/>
          <line class="cls-5" x1="96.89" y1="96.8" x2="149.39" y2="96.8"/>
          <line class="cls-5" x1="96.89" y1="106.08" x2="149.39" y2="106.08"/>
          <line class="cls-5" x1="96.89" y1="116.02" x2="140.37" y2="116.02"/>
          <path class="cls-6" d="m110.5,47.61c0,3.98-3.23,7.2-7.2,7.2s-7.2-3.23-7.2-7.2,3.23-7.2,7.2-7.2,7.2,3.23,7.2,7.2Z"/>
          <rect class="cls-7" x="19" y="77.44" width="24.1" height="28.73"/>
        </g>
        <line class="cls-1" x1="16.34" y1="135.13" x2="53.75" y2="135.13"/>
        <line class="cls-1" x1="57.86" y1="135.13" x2="65.25" y2="135.13"/>
        <line class="cls-1" x1="92.31" y1="135.13" x2="102.3" y2="135.13"/>
        <line class="cls-1" x1="106.92" y1="135.13" x2="123.14" y2="135.13"/>
        <line class="cls-1" x1="127.35" y1="135.13" x2="153.39" y2="135.13"/>
      </g>
    </g>
  </g>
</svg>