<svg width="153" height="72" viewBox="0 0 153 72" fill="none" xmlns="http://www.w3.org/2000/svg">
<rect width="153" height="72" rx="5" fill="black"/>
<path d="M12.8331 48V22.7789H18.4992V48H12.8331ZM17.8082 37.8425V33.1437H27.5511V37.8425H17.8082ZM17.8082 27.4776V22.7789H27.9657V27.4776H17.8082ZM28.1625 48L36.4889 22.7789H45.6445L54.2819 48H48.4085L41.4295 26.683L43.226 27.4085H38.7692L40.6348 26.683L33.8286 48H28.1625ZM34.485 41.7465L36.2125 37.0478H46.0937L47.8557 41.7465H34.485ZM57.5719 48V22.5716H63.238V48H57.5719ZM72.8773 48L65.4837 37.1515H71.7026L79.4417 48H72.8773ZM61.7178 39.9154V35.4585H67.9367C68.7659 35.4585 69.4799 35.2973 70.0788 34.9749C70.7007 34.6294 71.1729 34.1572 71.4953 33.5583C71.8408 32.9364 72.0136 32.2224 72.0136 31.4163C72.0136 30.6101 71.8408 29.9076 71.4953 29.3087C71.1729 28.6869 70.7007 28.2147 70.0788 27.8922C69.4799 27.5467 68.7659 27.374 67.9367 27.374H61.7178V22.5716H67.4876C69.5836 22.5716 71.4032 22.8941 72.9464 23.539C74.4896 24.1609 75.6758 25.0937 76.505 26.3375C77.3342 27.5813 77.7488 29.1475 77.7488 31.0362V31.589C77.7488 33.4547 77.3227 35.0094 76.4705 36.2532C75.6413 37.4739 74.4551 38.3953 72.9119 39.0171C71.3917 39.616 69.5836 39.9154 67.4876 39.9154H61.7178ZM80.4253 48L88.7517 22.7789H97.9073L106.545 48H100.671L93.6923 26.683L95.4888 27.4085H91.032L92.8976 26.683L86.0914 48H80.4253ZM86.7478 41.7465L88.4753 37.0478H98.3565L100.118 41.7465H86.7478ZM114.672 48.1727V43.7504H120.58C121.639 43.7504 122.434 43.474 122.963 42.9212C123.493 42.3684 123.758 41.5853 123.758 40.5719C123.758 39.5584 123.493 38.7868 122.963 38.2571C122.434 37.7043 121.639 37.4279 120.58 37.4279H114.672V34.0075H120.303C122.054 34.0075 123.608 34.2263 124.967 34.6639C126.326 35.0785 127.397 35.758 128.18 36.7023C128.964 37.6467 129.355 38.925 129.355 40.5373V41.021C129.355 42.5182 129.01 43.808 128.319 44.8905C127.628 45.9501 126.614 46.7677 125.278 47.3436C123.942 47.8964 122.284 48.1727 120.303 48.1727H114.672ZM109.835 48.1727V22.5716H115.363V48.1727H109.835ZM114.672 36.5296V33.1437H119.647C120.729 33.1437 121.512 32.8673 121.996 32.3145C122.48 31.7618 122.722 31.0247 122.722 30.1034C122.722 29.136 122.48 28.3759 121.996 27.8231C121.512 27.2703 120.729 26.9939 119.647 26.9939H114.672V22.5716H119.301C122.203 22.5716 124.426 23.182 125.969 24.4027C127.536 25.6235 128.319 27.3625 128.319 29.6197V30.1379C128.319 31.7042 127.916 32.9595 127.109 33.9038C126.326 34.8482 125.255 35.5276 123.896 35.9422C122.56 36.3338 121.029 36.5296 119.301 36.5296H114.672ZM134.343 48V29.0669H139.871V48H134.343ZM131.821 33.1437V29.0669H139.871V33.1437H131.821ZM136.486 27.2012C135.449 27.2012 134.677 26.9363 134.171 26.4066C133.687 25.8538 133.445 25.1628 133.445 24.3336C133.445 23.4814 133.687 22.7904 134.171 22.2607C134.677 21.7079 135.449 21.4315 136.486 21.4315C137.522 21.4315 138.282 21.7079 138.766 22.2607C139.273 22.7904 139.526 23.4814 139.526 24.3336C139.526 25.1628 139.273 25.8538 138.766 26.4066C138.282 26.9363 137.522 27.2012 136.486 27.2012Z" fill="white"/>
</svg>
